<svg xmlns="http://www.w3.org/2000/svg" viewBox="0 0 1000 700" role="img" aria-labelledby="title desc">
  <title id="title">Crypt of the Ashen King DnD Battle Map</title>
  <desc id="desc">A stone crypt battle map with chambers, coffins, braziers, corridors, and grid.</desc>
  <defs>
    <pattern id="grid" width="50" height="50" patternUnits="userSpaceOnUse">
      <path d="M50 0H0v50" fill="none" stroke="#d8d0ad" stroke-opacity=".2" stroke-width="2"/>
    </pattern>
  </defs>
  <rect width="1000" height="700" fill="#252534"/>
  <rect width="1000" height="700" fill="url(#grid)"/>
  <g fill="#77727a" stroke="#171722" stroke-width="18">
    <rect x="105" y="115" width="790" height="470" rx="14"/>
    <rect x="395" y="45" width="210" height="130" rx="8"/>
    <rect x="395" y="525" width="210" height="130" rx="8"/>
  </g>
  <g fill="#4a4853">
    <rect x="145" y="155" width="710" height="390" rx="8"/>
    <rect x="430" y="80" width="140" height="95"/>
    <rect x="430" y="525" width="140" height="95"/>
  </g>
  <g fill="#86818a" stroke="#3a3742" stroke-width="8">
    <rect x="435" y="250" width="130" height="170" rx="8"/>
    <rect x="197" y="204" width="82" height="132" rx="10"/>
    <rect x="721" y="204" width="82" height="132" rx="10"/>
    <rect x="197" y="376" width="82" height="132" rx="10"/>
    <rect x="721" y="376" width="82" height="132" rx="10"/>
  </g>
  <path d="M500 275l44 51-18 70h-52l-18-70Z" fill="#9f9472" stroke="#5c523d" stroke-width="8"/>
  <g fill="#e39d32">
    <circle cx="332" cy="220" r="18"/><circle cx="668" cy="220" r="18"/>
    <circle cx="332" cy="480" r="18"/><circle cx="668" cy="480" r="18"/>
  </g>
  <g fill="none" stroke="#c8c0a8" stroke-opacity=".35" stroke-width="7">
    <path d="M162 350h230M608 350h230M500 176v68M500 456v68"/>
  </g>
  <g fill="#242330" opacity=".75">
    <rect x="145" y="155" width="40" height="390"/><rect x="815" y="155" width="40" height="390"/>
    <rect x="145" y="155" width="710" height="40"/><rect x="145" y="505" width="710" height="40"/>
  </g>
</svg>
