<svg xmlns="http://www.w3.org/2000/svg" viewBox="0 0 1000 700" role="img" aria-labelledby="title desc">
  <title id="title">Whispering Thornwood DnD Battle Map</title>
  <desc id="desc">A forest battle map with paths, ruins, rocks, trees, and a square grid.</desc>
  <defs>
    <pattern id="grid" width="50" height="50" patternUnits="userSpaceOnUse">
      <path d="M50 0H0v50" fill="none" stroke="#f3edc7" stroke-opacity=".23" stroke-width="2"/>
    </pattern>
    <filter id="soft">
      <feDropShadow dx="0" dy="5" stdDeviation="6" flood-color="#1b2b16" flood-opacity=".28"/>
    </filter>
  </defs>
  <rect width="1000" height="700" fill="#314c2f"/>
  <rect width="1000" height="700" fill="url(#grid)"/>
  <path d="M-20 398C138 338 213 352 321 300c118-57 180-167 333-153 133 12 205 106 366 59v145c-120 26-196 8-300-12-120-23-186 2-287 83-139 111-258 90-453 133Z" fill="#8b784b" opacity=".9"/>
  <path d="M-12 456c146-56 237-33 358-93 91-45 140-139 258-136 109 3 173 89 288 72 43-6 86-17 129-31" fill="none" stroke="#b6a066" stroke-width="44" stroke-linecap="round" opacity=".65"/>
  <g fill="#22351e" filter="url(#soft)">
    <circle cx="94" cy="92" r="58"/><circle cx="178" cy="146" r="42"/><circle cx="823" cy="107" r="61"/>
    <circle cx="911" cy="177" r="48"/><circle cx="129" cy="603" r="62"/><circle cx="247" cy="572" r="43"/>
    <circle cx="856" cy="582" r="70"/><circle cx="735" cy="607" r="45"/><circle cx="512" cy="80" r="46"/>
  </g>
  <g fill="#577442">
    <circle cx="91" cy="88" r="38"/><circle cx="177" cy="143" r="27"/><circle cx="823" cy="105" r="39"/>
    <circle cx="910" cy="174" r="31"/><circle cx="129" cy="600" r="42"/><circle cx="247" cy="570" r="28"/>
    <circle cx="856" cy="580" r="46"/><circle cx="735" cy="605" r="29"/><circle cx="512" cy="78" r="29"/>
  </g>
  <g fill="#a7a49c" stroke="#5f5b50" stroke-width="5">
    <rect x="584" y="298" width="158" height="34" rx="4" transform="rotate(-8 663 315)"/>
    <rect x="594" y="363" width="112" height="30" rx="4" transform="rotate(12 650 378)"/>
    <rect x="510" y="349" width="66" height="30" rx="4" transform="rotate(-19 543 364)"/>
    <rect x="686" y="416" width="72" height="28" rx="4" transform="rotate(-21 722 430)"/>
  </g>
  <g fill="#4d514b" opacity=".85">
    <ellipse cx="382" cy="518" rx="38" ry="24"/><ellipse cx="439" cy="492" rx="24" ry="18"/>
    <ellipse cx="705" cy="236" rx="31" ry="19"/><ellipse cx="315" cy="208" rx="28" ry="20"/>
  </g>
  <path d="M452 295c-43 30-61 67-54 112 4 24 27 37 53 28 33-12 44-51 38-92" fill="none" stroke="#24381f" stroke-width="18" stroke-linecap="round"/>
</svg>
